<svg width="100%" height="100%" viewBox="0 0 16 16" fill="none" xmlns="http://www.w3.org/2000/svg">
<path fill-rule="evenodd" clip-rule="evenodd" d="M15.4661 2.349C15.5775 2.23757 15.666 2.10527 15.7264 1.95966C15.7867 1.81405 15.8178 1.65798 15.8179 1.50035C15.8179 1.34272 15.7869 1.18663 15.7266 1.04098C15.6664 0.895336 15.578 0.762989 15.4666 0.651496C15.3551 0.540004 15.2228 0.451551 15.0772 0.391186C14.9316 0.330822 14.7755 0.299729 14.6179 0.299683C14.4603 0.299636 14.3042 0.330637 14.1585 0.390915C14.0129 0.451194 13.8805 0.53957 13.7691 0.650996L8.11805 6.303L2.46605 0.650996C2.23841 0.438373 1.93706 0.322512 1.62561 0.327869C1.31416 0.333225 1.01698 0.45938 0.79678 0.679706C0.576584 0.900032 0.450605 1.19729 0.445432 1.50875C0.440258 1.8202 0.556296 2.12148 0.769054 2.349L6.42105 8L0.769054 13.651C0.602013 13.8192 0.488434 14.033 0.442602 14.2656C0.39677 14.4982 0.420732 14.7391 0.511473 14.9581C0.602213 15.1771 0.755682 15.3644 0.952577 15.4964C1.14947 15.6284 1.381 15.6992 1.61805 15.7C1.92505 15.7 2.23205 15.583 2.46605 15.349L8.11805 9.697L13.7691 15.349C13.8803 15.4607 14.0126 15.5493 14.1582 15.6097C14.3038 15.6702 14.4599 15.7013 14.6176 15.7013C14.7752 15.7013 14.9313 15.6702 15.0769 15.6097C15.2225 15.5493 15.3548 15.4607 15.4661 15.349C15.5776 15.2375 15.6661 15.1052 15.7265 14.9595C15.7869 14.8138 15.818 14.6577 15.818 14.5C15.818 14.3423 15.7869 14.1861 15.7265 14.0405C15.6661 13.8948 15.5776 13.7624 15.4661 13.651L9.81505 8L15.4661 2.349Z" fill="currentcolor"/>
</svg>
