<svg width="100%" height="100%" viewBox="0 0 20 20" fill="none" xmlns="http://www.w3.org/2000/svg">
<path d="M19.95 3.95001V3.90001C19.95 3.85001 19.9 3.80001 19.9 3.80001L19.85 3.75001C19.8 3.70001 19.8 3.70001 19.75 3.65001L19.7 3.60001C19.65 3.55001 19.6 3.55001 19.55 3.50001L10.25 0.0500122C10.1 1.22096e-05 9.9 1.22096e-05 9.75 0.0500122L0.5 3.45001C0.45 3.45001 0.4 3.50001 0.35 3.55001L0.3 3.60001C0.25 3.65001 0.25 3.65001 0.2 3.70001L0.15 3.75001C0.15 3.80001 0.0999999 3.85001 0.0999999 3.85001V3.90001C-9.68575e-08 4.00001 0 4.10001 0 4.15001V15.8C0 16.1 0.2 16.4 0.5 16.5L9.75 19.95C9.85 20 9.9 20 10 20C10.1 20 10.15 20 10.25 19.95L19.5 16.5C19.8 16.4 20 16.1 20 15.8V4.15001C20 4.10001 20 4.00001 19.95 3.95001ZM10 6.80001L2.85 4.15001L5.8 3.05001L12.95 5.70001L10 6.80001ZM10 1.50001L17.15 4.15001L15.1 4.90001L7.95 2.25001L10 1.50001ZM1.45 5.20001L9.25 8.10001V18.25L1.45 15.3V5.20001ZM10.75 18.2V8.05001L18.55 5.15001V15.25L10.75 18.2Z" fill="currentcolor"/>
</svg>
